<svg width="63" height="29" viewBox="0 0 63 29" fill="none" xmlns="http://www.w3.org/2000/svg">
<rect width="3.03495" height="31.0367" rx="1.51748" transform="matrix(0.856052 0.51689 -0.483298 0.875456 15.7012 0.259766)" fill="black"/>
<rect width="3.03495" height="31.0367" rx="1.51748" transform="matrix(0.856052 -0.51689 0.483298 0.875456 14.7012 1.82861)" fill="black"/>
<rect x="29" y="3" width="3" height="18" rx="1.5" transform="rotate(-90 29 3)" fill="black"/>
<rect x="29" y="29" width="3" height="12" rx="1.5" transform="rotate(-90 29 29)" fill="black"/>
<rect x="29" y="16" width="3" height="12" rx="1.5" transform="rotate(-90 29 16)" fill="black"/>
<rect x="58.0518" y="3.34033" width="3" height="13.7053" rx="1.5" transform="rotate(31 58.0518 3.34033)" fill="#C4C4C4"/>
<rect x="50.9658" y="14.5381" width="3" height="13.7741" rx="1.5" transform="rotate(-31 50.9658 14.5381)" fill="#C4C4C4"/>
<rect x="49.5" y="0.5" width="13" height="28" stroke="black"/>
<path d="M31 16C28.8783 16 26.8434 15.1571 25.3431 13.6569C23.8429 12.1566 23 10.1217 23 8C23 5.87827 23.8429 3.84344 25.3431 2.34315C26.8434 0.842855 28.8783 -2.53014e-08 31 0L31 3C29.6739 3 28.4021 3.52678 27.4645 4.46447C26.5268 5.40215 26 6.67392 26 8C26 9.32608 26.5268 10.5979 27.4645 11.5355C28.4021 12.4732 29.6739 13 31 13L31 16Z" fill="black"/>
<path d="M39 13C41.1217 13 43.1566 13.8429 44.6569 15.3431C46.1571 16.8434 47 18.8783 47 21C47 23.1217 46.1571 25.1566 44.6569 26.6569C43.1566 28.1571 41.1217 29 39 29L39 26C40.3261 26 41.5979 25.4732 42.5355 24.5355C43.4732 23.5979 44 22.3261 44 21C44 19.6739 43.4732 18.4021 42.5355 17.4645C41.5979 16.5268 40.3261 16 39 16L39 13Z" fill="black"/>
</svg>
